<svg width="32" height="32" viewBox="0 0 32 32" fill="none" xmlns="http://www.w3.org/2000/svg">
<path d="M24.3651 14.3283V5.10151C24.3651 3.44901 23.0508 2.14067 21.4669 2.14067H17.8611V1.10775C17.8611 0.522501 17.3894 0.0405331 16.8165 0.0405331C16.2436 0.0405331 15.7719 0.522519 15.7719 1.10775V2.10605L8.59375 2.10629V1.10775C8.59375 0.522495 8.12196 0.0405273 7.54911 0.0405273C6.97624 0.0405273 6.50423 0.522513 6.50423 1.10775V2.10605L2.89844 2.10629C1.2809 2.10629 0.000236511 3.449 0.000236511 5.06714V21.1796C0.000236511 22.8321 1.31454 24.1405 2.89844 24.1405H14.7272C15.2326 28.513 18.906 31.9557 23.3207 31.9557C28.1061 31.9557 31.9816 27.9966 31.9816 23.1076C32.0152 18.5976 28.6788 14.8448 24.3654 14.3284L24.3651 14.3283ZM2.8982 4.2408H6.50423V5.2391C6.50423 5.82436 6.97601 6.30632 7.54887 6.30632C8.12174 6.30632 8.59351 5.82434 8.59351 5.2391V4.2408H15.7716V5.2391C15.7716 5.82436 16.2434 6.30632 16.8163 6.30632C17.3891 6.30632 17.8609 5.82434 17.8609 5.2391V4.2408H21.4669C21.9387 4.2408 22.3094 4.61953 22.3094 5.10151V8.71656H2.0894L2.08916 5.10151C2.08916 4.61953 2.45988 4.2408 2.89803 4.2408H2.8982ZM2.08934 21.214V10.8166H22.3094V14.3284C18.3665 14.8104 15.2324 18.0124 14.7606 22.0404L2.89814 22.0401C2.45997 22.0401 2.08928 21.6614 2.08928 21.2138L2.08934 21.214ZM23.3541 29.8556C19.7145 29.8556 16.7489 26.8258 16.7489 23.1076C16.7491 19.3893 19.7148 16.394 23.3541 16.394C26.9937 16.394 29.9593 19.4238 29.9593 23.142C29.9593 26.8601 26.9936 29.8556 23.3541 29.8556Z" fill="white"/>
<path d="M26.2186 22.0403H24.3651V19.4925C24.3651 18.9073 23.8933 18.4253 23.3204 18.4253C22.7476 18.4253 22.2758 18.9073 22.2758 19.4925V23.1076C22.2758 23.6928 22.7476 24.1748 23.3204 24.1748H26.2186C26.7915 24.1748 27.2633 23.6928 27.2633 23.1076C27.2633 22.5223 26.7915 22.0403 26.2186 22.0403V22.0403Z" fill="white"/>
</svg>
