<svg width="24" height="25" viewBox="0 0 24 25" fill="none" xmlns="http://www.w3.org/2000/svg">
<circle cx="12" cy="12.1459" r="12" fill="#222222"/>
<path d="M9.03168 19.1459C15.0694 19.1459 18.3718 13.7592 18.3718 9.08788C18.3718 8.93488 18.3718 8.78257 18.3622 8.63095C19.0047 8.13054 19.5593 7.51094 20 6.80116C19.4009 7.08718 18.7654 7.27466 18.1146 7.35734C18.7999 6.9156 19.3128 6.22074 19.5578 5.40211C18.9134 5.81391 18.2084 6.1041 17.4733 6.26015C16.9783 5.69342 16.3237 5.31815 15.6108 5.1924C14.8978 5.06666 14.1663 5.19745 13.5293 5.56454C12.8923 5.93163 12.3855 6.51456 12.0872 7.22311C11.7888 7.93166 11.7157 8.72634 11.879 9.48417C10.5739 9.41367 9.29717 9.04842 8.13164 8.41214C6.9661 7.77586 5.93784 6.88276 5.1136 5.79082C4.69382 6.56902 4.56525 7.49025 4.75407 8.36695C4.94288 9.24365 5.43489 10.0099 6.12992 10.5097C5.60749 10.4932 5.09643 10.3414 4.64 10.0672V10.112C4.64021 10.9282 4.90257 11.7191 5.38258 12.3507C5.86259 12.9823 6.53071 13.4156 7.2736 13.5772C6.79032 13.7192 6.28325 13.7399 5.79136 13.6379C6.00121 14.3402 6.40962 14.9544 6.95949 15.3946C7.50937 15.8347 8.17322 16.0788 8.85824 16.0928C8.17763 16.6689 7.39821 17.0948 6.56458 17.3462C5.73096 17.5977 4.85948 17.6696 4 17.558C5.50122 18.5954 7.24795 19.1456 9.03168 19.1431" fill="white"/>
</svg>
