<svg width="24" height="25" viewBox="0 0 24 25" fill="none" xmlns="http://www.w3.org/2000/svg">
<circle cx="12" cy="12.1459" r="12" fill="#222222"/>
<path fill-rule="evenodd" clip-rule="evenodd" d="M8.32655 19.1458H5.18679V9.69966H8.32655V19.1458ZM6.75667 8.41038H6.73592C5.68269 8.41038 5 7.68476 5 6.7778C5 5.85093 5.70264 5.14587 6.77723 5.14587C7.85205 5.14587 8.51255 5.85093 8.5331 6.7778C8.5331 7.68476 7.85205 8.41038 6.75667 8.41038ZM19.6509 19.1458H16.5103V14.0921C16.5103 12.8228 16.0566 11.9563 14.9199 11.9563C14.0518 11.9563 13.536 12.5397 13.3087 13.1048C13.2261 13.3067 13.2045 13.5873 13.2045 13.8703V19.1459H10.0633C10.0633 19.1459 10.1054 10.5859 10.0633 9.69971H13.2045V11.0382C13.6219 10.3961 14.3666 9.47794 16.035 9.47794C18.1018 9.47794 19.6509 10.8277 19.6509 13.7289V19.1458Z" fill="white"/>
</svg>
