<svg width="47" height="47" viewBox="0 0 47 47" fill="none" xmlns="http://www.w3.org/2000/svg">
<path d="M23.3334 32.6667L14.0001 23.3333L23.3334 14L26.6001 17.2667L22.8668 21L32.6668 21L32.6668 25.6667L22.8668 25.6667L26.6001 29.4L23.3334 32.6667ZM23.3334 46.6667C26.5612 46.6667 29.5945 46.0538 32.4334 44.828C35.2723 43.6038 37.7418 41.9417 39.8418 39.8417C41.9418 37.7417 43.6039 35.2722 44.8281 32.4333C46.0539 29.5944 46.6668 26.5611 46.6668 23.3333C46.6667 20.1056 46.0539 17.0722 44.8281 14.2333C43.6039 11.3944 41.9417 8.925 39.8417 6.825C37.7417 4.725 35.2723 3.06211 32.4334 1.83633C29.5945 0.612112 26.5612 1.75768e-06 23.3334 2.03986e-06C20.1056 2.32205e-06 17.0723 0.612114 14.2334 1.83634C11.3945 3.06211 8.92508 4.725 6.82508 6.825C4.72508 8.925 3.06297 11.3944 1.83875 14.2333C0.612974 17.0722 8.47273e-05 20.1056 8.50095e-05 23.3333C8.52917e-05 26.5611 0.612975 29.5944 1.83875 32.4333C3.06298 35.2722 4.72508 37.7417 6.82508 39.8417C8.92508 41.9417 11.3945 43.6038 14.2334 44.828C17.0723 46.0538 20.1056 46.6667 23.3334 46.6667ZM23.3334 42C18.1223 42 13.7084 40.1917 10.0918 36.575C6.47509 32.9583 4.66675 28.5444 4.66675 23.3333C4.66675 18.1222 6.47509 13.7083 10.0918 10.0917C13.7084 6.475 18.1223 4.66667 23.3334 4.66667C28.5445 4.66667 32.9584 6.475 36.5751 10.0917C40.1917 13.7083 42.0001 18.1222 42.0001 23.3333C42.0001 28.5444 40.1918 32.9583 36.5751 36.575C32.9584 40.1917 28.5445 42 23.3334 42Z" fill="black"/>
</svg>
