<svg width="47" height="47" viewBox="0 0 47 47" fill="none" xmlns="http://www.w3.org/2000/svg">
<path d="M23.3333 14.0001L32.6667 23.3334L23.3333 32.6668L20.0667 29.4001L23.8 25.6668L14 25.6668L14 21.0001L23.8 21.0001L20.0667 17.2668L23.3333 14.0001ZM23.3333 8.80031e-05C20.1056 8.74387e-05 17.0722 0.612975 14.2333 1.83875C11.3945 3.06298 8.92501 4.72508 6.82501 6.82508C4.72501 8.92508 3.0629 11.3945 1.83867 14.2334C0.612894 17.0723 4.64409e-06 20.1056 4.07973e-06 23.3334C3.51537e-06 26.5612 0.612892 29.5945 1.83867 32.4334C3.06289 35.2723 4.725 37.7417 6.825 39.8417C8.925 41.9417 11.3944 43.6046 14.2333 44.8304C17.0722 46.0546 20.1056 46.6668 23.3333 46.6668C26.5611 46.6668 29.5944 46.0546 32.4333 44.8304C35.2722 43.6046 37.7417 41.9418 39.8417 39.8418C41.9417 37.7418 43.6038 35.2723 44.828 32.4334C46.0538 29.5945 46.6667 26.5612 46.6667 23.3334C46.6667 20.1056 46.0538 17.0723 44.828 14.2334C43.6038 11.3945 41.9417 8.92509 39.8417 6.82509C37.7417 4.72509 35.2722 3.06298 32.4333 1.83875C29.5945 0.612977 26.5611 8.85674e-05 23.3333 8.80031e-05ZM23.3333 4.66675C28.5445 4.66675 32.9583 6.47509 36.575 10.0918C40.1917 13.7084 42 18.1223 42 23.3334C42 28.5445 40.1917 32.9584 36.575 36.5751C32.9583 40.1918 28.5444 42.0001 23.3333 42.0001C18.1222 42.0001 13.7083 40.1918 10.0917 36.5751C6.475 32.9584 4.66667 28.5445 4.66667 23.3334C4.66667 18.1223 6.47501 13.7084 10.0917 10.0918C13.7083 6.47509 18.1222 4.66675 23.3333 4.66675Z" fill="black"/>
</svg>
